<mxfile host="Electron" agent="Mozilla/5.0 (Windows NT 10.0; Win64; x64) AppleWebKit/537.36 (KHTML, like Gecko) draw.io/24.7.17 Chrome/128.0.6613.36 Electron/32.0.1 Safari/537.36" version="24.7.17">
  <diagram name="Page-1" id="9EiCwfn9s2ZUl7jW-kyH">
    <mxGraphModel dx="1322" dy="684" grid="1" gridSize="10" guides="1" tooltips="1" connect="1" arrows="1" fold="1" page="1" pageScale="1" pageWidth="850" pageHeight="1100" math="0" shadow="0">
      <root>
        <mxCell id="0" />
        <mxCell id="1" parent="0" />
        <mxCell id="mLLVJKRHBmZbip8vdu9V-1" value="ReplyComment" style="rounded=1;arcSize=10;whiteSpace=wrap;html=1;align=center;" parent="1" vertex="1">
          <mxGeometry x="400" y="440" width="100" height="40" as="geometry" />
        </mxCell>
        <mxCell id="mLLVJKRHBmZbip8vdu9V-2" value="Comment" style="ellipse;whiteSpace=wrap;html=1;align=center;" parent="1" vertex="1">
          <mxGeometry x="290" y="370" width="100" height="40" as="geometry" />
        </mxCell>
        <mxCell id="mLLVJKRHBmZbip8vdu9V-3" value="" style="endArrow=none;html=1;rounded=0;" parent="1" source="mLLVJKRHBmZbip8vdu9V-2" target="mLLVJKRHBmZbip8vdu9V-1" edge="1">
          <mxGeometry relative="1" as="geometry">
            <mxPoint x="360" y="520" as="sourcePoint" />
            <mxPoint x="520" y="520" as="targetPoint" />
          </mxGeometry>
        </mxCell>
        <mxCell id="mLLVJKRHBmZbip8vdu9V-4" value="Commenter" style="ellipse;whiteSpace=wrap;html=1;align=center;" parent="1" vertex="1">
          <mxGeometry x="400" y="370" width="100" height="40" as="geometry" />
        </mxCell>
        <mxCell id="mLLVJKRHBmZbip8vdu9V-5" value="" style="endArrow=none;html=1;rounded=0;" parent="1" source="mLLVJKRHBmZbip8vdu9V-4" target="mLLVJKRHBmZbip8vdu9V-1" edge="1">
          <mxGeometry relative="1" as="geometry">
            <mxPoint x="380" y="560" as="sourcePoint" />
            <mxPoint x="540" y="560" as="targetPoint" />
          </mxGeometry>
        </mxCell>
        <mxCell id="mLLVJKRHBmZbip8vdu9V-7" value="Content" style="ellipse;whiteSpace=wrap;html=1;align=center;" parent="1" vertex="1">
          <mxGeometry x="510" y="370" width="100" height="40" as="geometry" />
        </mxCell>
        <mxCell id="mLLVJKRHBmZbip8vdu9V-9" value="Report" style="ellipse;shape=doubleEllipse;margin=3;whiteSpace=wrap;html=1;align=center;" parent="1" vertex="1">
          <mxGeometry x="180" y="370" width="100" height="40" as="geometry" />
        </mxCell>
        <mxCell id="mLLVJKRHBmZbip8vdu9V-10" value="" style="endArrow=none;html=1;rounded=0;" parent="1" source="mLLVJKRHBmZbip8vdu9V-9" target="mLLVJKRHBmZbip8vdu9V-1" edge="1">
          <mxGeometry relative="1" as="geometry">
            <mxPoint x="390" y="510" as="sourcePoint" />
            <mxPoint x="550" y="510" as="targetPoint" />
          </mxGeometry>
        </mxCell>
        <mxCell id="mLLVJKRHBmZbip8vdu9V-11" value="" style="endArrow=none;html=1;rounded=0;" parent="1" source="mLLVJKRHBmZbip8vdu9V-7" target="mLLVJKRHBmZbip8vdu9V-1" edge="1">
          <mxGeometry relative="1" as="geometry">
            <mxPoint x="279" y="412" as="sourcePoint" />
            <mxPoint x="410" y="454" as="targetPoint" />
          </mxGeometry>
        </mxCell>
        <mxCell id="slTAlgljftb0USOVmX5m-1" value="Reporter" style="ellipse;whiteSpace=wrap;html=1;align=center;" vertex="1" parent="1">
          <mxGeometry x="90" y="310" width="100" height="40" as="geometry" />
        </mxCell>
        <mxCell id="slTAlgljftb0USOVmX5m-2" value="" style="endArrow=none;html=1;rounded=0;" edge="1" parent="1" source="mLLVJKRHBmZbip8vdu9V-9" target="slTAlgljftb0USOVmX5m-1">
          <mxGeometry width="50" height="50" relative="1" as="geometry">
            <mxPoint x="90" y="440" as="sourcePoint" />
            <mxPoint x="140" y="390" as="targetPoint" />
          </mxGeometry>
        </mxCell>
      </root>
    </mxGraphModel>
  </diagram>
</mxfile>
